<?xml version="1.0" encoding="UTF-8"?>
<svg width="164px" height="37px" viewBox="0 0 164 37" version="1.1" xmlns="http://www.w3.org/2000/svg" xmlns:xlink="http://www.w3.org/1999/xlink">
    <!-- Generator: Sketch 52.2 (67145) - http://www.bohemiancoding.com/sketch -->
    <title>White_Logo</title>
    <desc>Created with Sketch.</desc>
    <defs>
        <polygon id="path-1" points="0.2783 0.0883440312 31.144 0.0883440312 31.144 22.5301505 0.2783 22.5301505"></polygon>
        <polygon id="path-3" points="0.2113 0.0087 98.4183 0.0087 98.4183 9.972 0.2113 9.972"></polygon>
    </defs>
    <g id="Symbols" stroke="none" stroke-width="1" fill="none" fill-rule="evenodd">
        <g id="Header">
            <g id="White_Logo">
                <g>
                    <g id="Group-594" transform="translate(0.000000, 0.720000)">
                        <path d="M77.7866,24.2359 L75.3446,24.2359 L75.3446,16.4909 C75.3446,14.7039 75.2596,13.4879 75.0906,12.8419 C74.9216,12.1969 74.6736,11.6509 74.3466,11.2039 C74.0186,10.7569 73.6016,10.4249 73.0956,10.2069 C72.5886,9.9879 71.9736,9.8789 71.2486,9.8789 C70.5236,9.8789 69.8136,10.0579 69.1186,10.4149 C68.4236,10.7729 67.8276,11.2689 67.3316,11.9039 C66.8346,12.5399 66.4926,13.2149 66.3046,13.9299 C66.1156,14.6449 66.0206,16.0739 66.0206,18.2189 L66.0206,24.2359 L63.5486,24.2359 L63.5486,8.0029 L66.0206,8.0029 L66.0206,10.4449 C67.6296,8.5389 69.5356,7.5859 71.7406,7.5859 C72.9116,7.5859 73.9736,7.8879 74.9276,8.4939 C75.8806,9.0999 76.5956,9.9339 77.0716,10.9959 C77.5486,12.0579 77.7866,13.6919 77.7866,15.8959 L77.7866,24.2359 Z M58.7836,14.3769 C58.4856,12.9869 57.8096,11.9039 56.7576,11.1299 C55.7046,10.3559 54.4946,9.9679 53.1236,9.9679 C50.3436,9.9679 48.4966,11.4379 47.5836,14.3769 L58.7836,14.3769 Z M61.5236,16.5509 L47.2856,16.5509 C47.3846,18.3379 47.9856,19.7729 49.0876,20.8549 C50.1896,21.9379 51.5046,22.4789 53.0346,22.4789 C55.6356,22.4789 57.6216,21.1979 58.9916,18.6359 L61.0766,19.7079 C60.1426,21.4359 59.0406,22.7119 57.7706,23.5359 C56.4996,24.3599 54.9806,24.7719 53.2126,24.7719 C50.7706,24.7719 48.7546,23.9329 47.1666,22.2549 C45.5776,20.5769 44.7836,18.5569 44.7836,16.1939 C44.7836,13.8309 45.5826,11.8049 47.1816,10.1169 C48.7796,8.4299 50.7606,7.5859 53.1236,7.5859 C55.4866,7.5859 57.4626,8.3849 59.0516,9.9829 C60.6396,11.5819 61.4636,13.7709 61.5236,16.5509 Z M40.7626,14.3769 C40.4646,12.9869 39.7896,11.9039 38.7376,11.1299 C37.6846,10.3559 36.4736,9.9679 35.1026,9.9679 C32.3226,9.9679 30.4756,11.4379 29.5626,14.3769 L40.7626,14.3769 Z M43.5026,16.5509 L29.2656,16.5509 C29.3646,18.3379 29.9656,19.7729 31.0676,20.8549 C32.1696,21.9379 33.4846,22.4789 35.0136,22.4789 C37.6156,22.4789 39.6006,21.1979 40.9716,18.6359 L43.0566,19.7079 C42.1226,21.4359 41.0206,22.7119 39.7496,23.5359 C38.4786,24.3599 36.9596,24.7719 35.1926,24.7719 C32.7496,24.7719 30.7346,23.9329 29.1456,22.2549 C27.5576,20.5769 26.7636,18.5569 26.7636,16.1939 C26.7636,13.8309 27.5616,11.8049 29.1606,10.1169 C30.7596,8.4299 32.7396,7.5859 35.1026,7.5859 C37.4666,7.5859 39.4416,8.3849 41.0306,9.9829 C42.6196,11.5819 43.4436,13.7709 43.5026,16.5509 Z M26.7336,8.2409 L25.4526,10.3259 C25.1146,10.1469 24.7866,10.0579 24.4696,10.0579 C23.8536,10.0579 23.2976,10.3609 22.8016,10.9659 C22.3056,11.5719 21.9326,12.3659 21.6846,13.3489 C21.4356,14.3319 21.3126,16.1039 21.3126,18.6659 L21.3126,24.2359 L18.8096,24.2359 L18.8096,8.0029 L21.3126,8.0029 L21.3126,9.7599 C21.8086,9.0259 22.3096,8.4789 22.8166,8.1219 C23.3226,7.7639 23.8986,7.5859 24.5436,7.5859 C25.1886,7.5859 25.9186,7.8039 26.7336,8.2409 Z M15.0276,15.8659 C15.0276,14.1579 14.4556,12.7489 13.3146,11.6359 C12.1726,10.5249 10.7776,9.9679 9.1296,9.9679 C7.3816,9.9679 5.9176,10.5689 4.7366,11.7699 C3.5546,12.9719 2.9636,14.3669 2.9636,15.9549 C2.9636,17.5439 3.5296,18.8889 4.6616,19.9909 C5.7936,21.0929 7.2426,21.6449 9.0106,21.6449 C10.7776,21.6449 12.2226,21.1039 13.3446,20.0209 C14.4656,18.9389 15.0276,17.5539 15.0276,15.8659 Z M17.4106,20.4229 C17.4106,22.5679 17.2256,24.1569 16.8586,25.1889 C16.4916,26.2209 15.9356,27.0949 15.1906,27.8099 C14.4466,28.5249 13.5526,29.0659 12.5106,29.4339 C11.4676,29.8009 10.3206,29.9849 9.0696,29.9849 C4.8406,29.9849 2.0206,28.1969 0.6106,24.6229 L3.2316,24.6229 C4.3836,26.6879 6.2996,27.7209 8.9806,27.7209 C10.2116,27.7209 11.3136,27.4829 12.2866,27.0059 C13.2596,26.5289 13.9446,25.8939 14.3426,25.0999 C14.7396,24.3059 14.9376,23.0849 14.9376,21.4359 L14.9376,21.2869 C14.1636,22.1609 13.2296,22.8259 12.1386,23.2829 C11.0456,23.7399 9.9136,23.9679 8.7426,23.9679 C6.3986,23.9679 4.4386,23.1639 2.8596,21.5549 C1.2806,19.9459 0.5016,18.0499 0.5216,15.8659 C0.5016,13.5829 1.3256,11.6319 2.9936,10.0129 C4.6616,8.3949 6.6426,7.5859 8.9356,7.5859 C11.2296,7.5859 13.2296,8.5189 14.9376,10.3849 L14.9376,8.0029 L17.4106,8.0029 L17.4106,20.4229 Z" id="Fill-584" fill="#FEFEFE"></path>
                        <path d="M129.7339,14.7935 C129.4559,13.2845 128.7609,12.1035 127.6489,11.2495 C126.5369,10.3955 125.2559,9.9685 123.8069,9.9685 C120.8279,9.9685 118.8819,11.5765 117.9679,14.7935 L129.7339,14.7935 Z M123.7169,22.8955 C126.3979,22.8955 128.4029,21.6345 129.7339,19.1125 L131.4619,20.0055 C129.7539,23.1835 127.2319,24.7725 123.8959,24.7725 C121.5129,24.7725 119.5469,23.9525 117.9979,22.3145 C116.4489,20.6765 115.6749,18.7055 115.6749,16.4015 C115.6749,14.0985 116.4539,12.1235 118.0129,10.4745 C119.5719,8.8265 121.4979,8.0025 123.7919,8.0025 C126.0859,8.0025 128.0109,8.7675 129.5699,10.2955 C131.1289,11.8255 131.9379,13.9105 131.9979,16.5505 L117.7599,16.5505 C117.8189,18.4575 118.4199,19.9915 119.5619,21.1525 C120.7039,22.3145 122.0889,22.8955 123.7169,22.8955 Z M111.5049,24.2365 L113.5299,24.2365 L113.5299,2.3135 L111.5049,2.3135 L111.5049,24.2365 Z M106.8879,24.2355 L108.9429,24.2355 L108.9429,8.4195 L106.8879,8.4195 L106.8879,24.2355 Z M106.2329,4.0105 C106.2329,3.5545 106.3969,3.1575 106.7239,2.8195 C107.0519,2.4815 107.4489,2.3135 107.9159,2.3135 C108.3819,2.3135 108.7789,2.4775 109.1069,2.8045 C109.4349,3.1325 109.5989,3.5295 109.5989,3.9965 C109.5989,4.4625 109.4349,4.8595 109.1069,5.1875 C108.7789,5.5155 108.3819,5.6785 107.9159,5.6785 C107.4489,5.6785 107.0519,5.5105 106.7239,5.1725 C106.3969,4.8355 106.2329,4.4475 106.2329,4.0105 Z M80.5869,8.4195 L82.6119,8.4195 L82.6119,11.1595 C84.0219,9.0555 85.8289,8.0025 88.0329,8.0025 C89.2049,8.0025 90.2529,8.3355 91.1759,9.0005 C92.0989,9.6655 92.7189,10.6045 93.0369,11.8145 C93.6929,10.5845 94.5269,9.6405 95.5399,8.9855 C96.5519,8.3305 97.7179,8.0025 99.0389,8.0025 C100.3599,8.0025 101.5559,8.5135 102.6289,9.5365 C103.7009,10.5595 104.2369,12.5795 104.2369,15.5975 L104.2369,24.2355 L102.1519,24.2355 L102.1519,15.5975 C102.1519,14.1485 102.0629,13.0805 101.8839,12.3955 C101.7049,11.7105 101.3179,11.1345 100.7219,10.6685 C100.1269,10.2015 99.3369,9.9685 98.3539,9.9685 C97.3709,9.9685 96.4529,10.2955 95.5989,10.9515 C94.7449,11.6065 94.1589,12.4405 93.8419,13.4535 C93.5239,14.4655 93.3649,15.9955 93.3649,18.0405 L93.3649,24.2355 L91.3689,24.2355 L91.3689,16.1335 C91.3689,14.4465 91.2799,13.2395 91.1009,12.5145 C90.9219,11.7905 90.5249,11.1845 89.9099,10.6975 C89.2939,10.2115 88.5399,9.9685 87.6459,9.9685 C86.7529,9.9685 85.9129,10.2315 85.1289,10.7575 C84.3439,11.2835 83.7289,12.0035 83.2819,12.9175 C82.8359,13.8305 82.6119,15.3695 82.6119,17.5335 L82.6119,24.2355 L80.5869,24.2355 L80.5869,8.4195 Z" id="Fill-586" fill="#FEFEFE"></path>
                        <g id="Group-590" transform="translate(132.000000, 0.000000)">
                            <mask id="mask-2" fill="white">
                                <use xlink:href="#path-1"></use>
                            </mask>
                            <g id="Clip-589"></g>
                            <path d="M18.6763,5.1641 L18.3703,4.7301 C19.8883,4.2641 21.4663,3.9041 23.0873,3.6871 C23.0873,3.6871 21.2933,4.1271 18.6763,5.1641 Z M3.7243,12.9971 C4.8073,12.0971 6.0653,11.1241 7.4733,10.1551 L8.1753,11.1141 C6.9493,12.0881 5.7623,13.1721 4.6653,14.3761 L3.7243,12.9971 Z M12.7473,8.0201 C11.5133,8.7321 10.2523,9.5451 9.0163,10.4661 L8.3863,9.5411 C9.5723,8.7641 10.8523,7.9991 12.2123,7.2891 L12.7473,8.0201 Z M13.1903,6.7941 C14.5313,6.1391 15.9433,5.5421 17.4123,5.0411 L17.7823,5.5291 C16.5283,6.0571 15.1283,6.7101 13.6733,7.5021 L13.1903,6.7941 Z M0.7693,15.6461 C1.3253,15.1051 2.0333,14.4461 2.8733,13.7191 L3.9523,15.1911 C2.4853,16.9401 1.2143,18.9231 0.2783,21.1641 C20.7303,28.1411 27.0843,6.1221 27.0843,6.1221 C28.7183,1.1761 31.1443,0.7361 31.1443,0.7361 C9.3443,-2.7329 2.7593,8.5261 0.7693,15.6461 Z" id="Fill-588" fill="#FEFEFE" mask="url(#mask-2)"></path>
                        </g>
                        <g id="Group-593" transform="translate(34.000000, 26.000000)">
                            <mask id="mask-4" fill="white">
                                <use xlink:href="#path-3"></use>
                            </mask>
                            <g id="Clip-592"></g>
                            <path d="M97.1323,7.3907 C97.1323,7.2117 97.1963,7.0597 97.3253,6.9347 C97.4533,6.8097 97.6053,6.7477 97.7803,6.7477 C97.9553,6.7477 98.1053,6.8097 98.2303,6.9347 C98.3553,7.0597 98.4183,7.2137 98.4183,7.3957 C98.4183,7.5777 98.3553,7.7317 98.2303,7.8567 C98.1053,7.9817 97.9553,8.0437 97.7803,8.0437 C97.6053,8.0437 97.4533,7.9797 97.3253,7.8507 C97.1963,7.7227 97.1323,7.5697 97.1323,7.3907 Z M95.4923,5.0867 C95.4923,4.4367 95.2783,3.8867 94.8503,3.4367 C94.4213,2.9867 93.8853,2.7617 93.2423,2.7617 C92.6003,2.7617 92.0623,2.9927 91.6303,3.4527 C91.1983,3.9137 90.9823,4.4567 90.9823,5.0817 C90.9823,5.7067 91.2033,6.2517 91.6463,6.7157 C92.0893,7.1797 92.6123,7.4117 93.2153,7.4117 C93.8193,7.4117 94.3503,7.1927 94.8073,6.7527 C95.2643,6.3137 95.4923,5.7587 95.4923,5.0867 Z M96.1683,0.0087 L96.1683,7.8937 L95.4503,7.8937 L95.4503,6.9187 C94.7993,7.6977 94.0553,8.0867 93.2153,8.0867 C92.3763,8.0867 91.6713,7.7907 91.1003,7.1977 C90.5283,6.6047 90.2423,5.8937 90.2423,5.0657 C90.2423,4.2367 90.5323,3.5277 91.1113,2.9387 C91.6893,2.3497 92.3823,2.0547 93.1893,2.0547 C94.1173,2.0547 94.8713,2.4517 95.4503,3.2447 L95.4503,0.0087 L96.1683,0.0087 Z M89.1713,4.4977 C89.0713,3.9547 88.8213,3.5297 88.4213,3.2227 C88.0213,2.9157 87.5603,2.7617 87.0393,2.7617 C85.9673,2.7617 85.2673,3.3407 84.9393,4.4977 L89.1713,4.4977 Z M87.0073,7.4117 C87.9713,7.4117 88.6933,6.9587 89.1713,6.0517 L89.7933,6.3727 C89.1783,7.5157 88.2713,8.0867 87.0713,8.0867 C86.2143,8.0867 85.5073,7.7927 84.9503,7.2037 C84.3933,6.6137 84.1143,5.9047 84.1143,5.0767 C84.1143,4.2477 84.3943,3.5367 84.9553,2.9437 C85.5163,2.3507 86.2093,2.0547 87.0343,2.0547 C87.8593,2.0547 88.5513,2.3297 89.1123,2.8797 C89.6733,3.4297 89.9643,4.1797 89.9863,5.1297 L84.8643,5.1297 C84.8853,5.8157 85.1013,6.3677 85.5123,6.7857 C85.9233,7.2037 86.4213,7.4117 87.0073,7.4117 Z M81.7363,2.2047 L82.4863,2.2047 L82.4863,3.0297 C82.6853,2.6937 82.8803,2.4477 83.0693,2.2907 C83.2583,2.1337 83.4693,2.0547 83.7013,2.0547 C83.9343,2.0547 84.1683,2.1197 84.4033,2.2477 L84.0183,2.8697 C83.9103,2.8047 83.7993,2.7727 83.6853,2.7727 C83.4643,2.7727 83.2553,2.8867 83.0593,3.1157 C82.8623,3.3447 82.7173,3.6387 82.6253,3.9997 C82.5323,4.3607 82.4863,5.0157 82.4863,5.9657 L82.4863,7.8937 L81.7363,7.8937 L81.7363,2.2047 Z M80.6963,4.4977 C80.5963,3.9547 80.3463,3.5297 79.9463,3.2227 C79.5463,2.9157 79.0863,2.7617 78.5643,2.7617 C77.4933,2.7617 76.7933,3.3407 76.4643,4.4977 L80.6963,4.4977 Z M78.5323,7.4117 C79.4963,7.4117 80.2173,6.9587 80.6963,6.0517 L81.3183,6.3727 C80.7033,7.5157 79.7963,8.0867 78.5963,8.0867 C77.7393,8.0867 77.0323,7.7927 76.4753,7.2037 C75.9183,6.6137 75.6393,5.9047 75.6393,5.0767 C75.6393,4.2477 75.9193,3.5367 76.4803,2.9437 C77.0413,2.3507 77.7343,2.0547 78.5593,2.0547 C79.3843,2.0547 80.0763,2.3297 80.6373,2.8797 C81.1983,3.4297 81.4893,4.1797 81.5103,5.1297 L76.3893,5.1297 C76.4103,5.8157 76.6273,6.3677 77.0373,6.7857 C77.4483,7.2037 77.9463,7.4117 78.5323,7.4117 Z M70.2933,2.2047 L71.0753,2.2047 L72.9713,6.5337 L74.8683,2.2047 L75.6503,2.2047 L73.0463,8.0867 L72.9183,8.0867 L70.2933,2.2047 Z M69.4363,7.8937 L70.1753,7.8937 L70.1753,2.2047 L69.4363,2.2047 L69.4363,7.8937 Z M69.2003,0.6197 C69.2003,0.4547 69.2593,0.3117 69.3773,0.1907 C69.4943,0.0687 69.6373,0.0087 69.8053,0.0087 C69.9733,0.0087 70.1163,0.0677 70.2343,0.1847 C70.3523,0.3027 70.4103,0.4457 70.4103,0.6137 C70.4103,0.7817 70.3523,0.9247 70.2343,1.0427 C70.1163,1.1607 69.9733,1.2197 69.8053,1.2197 C69.6373,1.2197 69.4943,1.1587 69.3773,1.0367 C69.2593,0.9157 69.2003,0.7767 69.2003,0.6197 Z M68.1503,7.8947 L68.8793,7.8947 L68.8793,0.0087 L68.1503,0.0087 L68.1503,7.8947 Z M66.9393,4.4977 C66.8393,3.9547 66.5893,3.5297 66.1893,3.2227 C65.7893,2.9157 65.3283,2.7617 64.8073,2.7617 C63.7363,2.7617 63.0353,3.3407 62.7073,4.4977 L66.9393,4.4977 Z M64.7753,7.4117 C65.7393,7.4117 66.4613,6.9587 66.9393,6.0517 L67.5613,6.3727 C66.9463,7.5157 66.0393,8.0867 64.8393,8.0867 C63.9823,8.0867 63.2753,7.7927 62.7183,7.2037 C62.1613,6.6137 61.8823,5.9047 61.8823,5.0767 C61.8823,4.2477 62.1623,3.5367 62.7233,2.9437 C63.2843,2.3507 63.9773,2.0547 64.8023,2.0547 C65.6273,2.0547 66.3203,2.3297 66.8803,2.8797 C67.4413,3.4297 67.7323,4.1797 67.7543,5.1297 L62.6323,5.1297 C62.6533,5.8157 62.8693,6.3677 63.2803,6.7857 C63.6913,7.2037 64.1893,7.4117 64.7753,7.4117 Z M60.6723,5.0867 C60.6723,4.4367 60.4573,3.8867 60.0283,3.4367 C59.6003,2.9867 59.0643,2.7617 58.4223,2.7617 C57.7783,2.7617 57.2413,2.9927 56.8093,3.4527 C56.3773,3.9137 56.1613,4.4567 56.1613,5.0817 C56.1613,5.7067 56.3823,6.2517 56.8253,6.7157 C57.2683,7.1797 57.7913,7.4117 58.3953,7.4117 C58.9983,7.4117 59.5283,7.1927 59.9863,6.7527 C60.4433,6.3137 60.6723,5.7587 60.6723,5.0867 Z M61.3463,0.0087 L61.3463,7.8937 L60.6293,7.8937 L60.6293,6.9187 C59.9783,7.6977 59.2343,8.0867 58.3953,8.0867 C57.5553,8.0867 56.8503,7.7907 56.2783,7.1977 C55.7073,6.6047 55.4223,5.8937 55.4223,5.0657 C55.4223,4.2367 55.7113,3.5277 56.2893,2.9387 C56.8683,2.3497 57.5613,2.0547 58.3683,2.0547 C59.2963,2.0547 60.0503,2.4517 60.6293,3.2447 L60.6293,0.0087 L61.3463,0.0087 Z M51.8973,7.3907 C51.8973,7.2117 51.9613,7.0597 52.0893,6.9347 C52.2183,6.8097 52.3693,6.7477 52.5453,6.7477 C52.7193,6.7477 52.8703,6.8097 52.9953,6.9347 C53.1193,7.0597 53.1823,7.2137 53.1823,7.3957 C53.1823,7.5777 53.1193,7.7317 52.9953,7.8567 C52.8703,7.9817 52.7193,8.0437 52.5453,8.0437 C52.3693,8.0437 52.2183,7.9797 52.0893,7.8507 C51.9613,7.7227 51.8973,7.5697 51.8973,7.3907 Z M46.2393,2.2047 L47.0113,2.2047 L48.9713,6.5867 L50.8683,2.2047 L51.6503,2.2047 L48.2543,9.9727 L47.4823,9.9727 L48.5753,7.4657 L46.2393,2.2047 Z M45.5113,4.9587 C45.5113,4.3367 45.3003,3.8157 44.8793,3.3937 C44.4573,2.9727 43.9363,2.7617 43.3143,2.7617 C42.6573,2.7617 42.1113,2.9887 41.6753,3.4427 C41.2393,3.8957 41.0213,4.4157 41.0213,5.0007 C41.0213,5.5867 41.2323,6.0847 41.6533,6.4957 C42.0753,6.9067 42.6143,7.1117 43.2713,7.1117 C43.9283,7.1117 44.4663,6.9117 44.8843,6.5117 C45.3023,6.1117 45.5113,5.5947 45.5113,4.9587 Z M45.4793,2.2047 L46.2183,2.2047 L46.2183,6.5977 C46.2183,7.3767 46.1503,7.9477 46.0143,8.3117 C45.8793,8.6767 45.6823,8.9797 45.4253,9.2227 C45.1683,9.4657 44.8573,9.6517 44.4933,9.7797 C44.1293,9.9087 43.7283,9.9727 43.2933,9.9727 C41.8073,9.9727 40.8283,9.3797 40.3573,8.1937 L41.1503,8.1937 C41.5643,8.9367 42.2683,9.3087 43.2613,9.3087 C43.7393,9.3087 44.1553,9.2157 44.5093,9.0297 C44.8623,8.8437 45.1123,8.6067 45.2593,8.3177 C45.4053,8.0277 45.4793,7.5767 45.4793,6.9617 L45.4793,6.7157 C45.1863,7.0797 44.8393,7.3517 44.4393,7.5297 C44.0393,7.7087 43.6183,7.7977 43.1753,7.7977 C42.3463,7.7977 41.6573,7.5157 41.1073,6.9517 C40.5573,6.3877 40.2823,5.7227 40.2823,4.9587 C40.2823,4.1657 40.5753,3.4837 41.1613,2.9117 C41.7463,2.3407 42.4553,2.0547 43.2873,2.0547 C44.1193,2.0547 44.8503,2.4337 45.4793,3.1907 L45.4793,2.2047 Z M39.2543,5.0977 C39.2543,4.4697 39.0343,3.9247 38.5943,3.4637 C38.1553,3.0027 37.6343,2.7727 37.0303,2.7727 C36.4263,2.7727 35.9073,3.0027 35.4713,3.4637 C35.0363,3.9247 34.8183,4.4727 34.8183,5.1087 C34.8183,5.7447 35.0283,6.2837 35.4503,6.7257 C35.8713,7.1687 36.3953,7.3907 37.0203,7.3907 C37.6453,7.3907 38.1733,7.1677 38.6053,6.7207 C39.0373,6.2747 39.2543,5.7337 39.2543,5.0977 Z M34.0683,5.0867 C34.0683,4.2507 34.3553,3.5367 34.9303,2.9437 C35.5053,2.3507 36.2053,2.0547 37.0303,2.0547 C37.8553,2.0547 38.5553,2.3507 39.1313,2.9437 C39.7053,3.5367 39.9933,4.2477 39.9933,5.0767 C39.9933,5.9047 39.7093,6.6137 39.1413,7.2037 C38.5733,7.7927 37.8713,8.0867 37.0363,8.0867 C36.2003,8.0867 35.4963,7.7927 34.9253,7.2037 C34.3533,6.6137 34.0683,5.9087 34.0683,5.0867 Z M32.9433,7.8947 L33.6723,7.8947 L33.6723,0.0087 L32.9433,0.0087 L32.9433,7.8947 Z M31.8073,5.0977 C31.8073,4.4697 31.5883,3.9247 31.1483,3.4637 C30.7093,3.0027 30.1883,2.7727 29.5843,2.7727 C28.9803,2.7727 28.4613,3.0027 28.0253,3.4637 C27.5893,3.9247 27.3713,4.4727 27.3713,5.1087 C27.3713,5.7447 27.5823,6.2837 28.0043,6.7257 C28.4253,7.1687 28.9483,7.3907 29.5733,7.3907 C30.1983,7.3907 30.7273,7.1677 31.1593,6.7207 C31.5913,6.2747 31.8073,5.7337 31.8073,5.0977 Z M26.6213,5.0867 C26.6213,4.2507 26.9093,3.5367 27.4843,2.9437 C28.0593,2.3507 28.7593,2.0547 29.5843,2.0547 C30.4093,2.0547 31.1093,2.3507 31.6843,2.9437 C32.2593,3.5367 32.5473,4.2477 32.5473,5.0767 C32.5473,5.9047 32.2623,6.6137 31.6943,7.2037 C31.1273,7.7927 30.4253,8.0867 29.5893,8.0867 C28.7543,8.0867 28.0503,7.7927 27.4793,7.2037 C26.9073,6.6137 26.6213,5.9087 26.6213,5.0867 Z M21.2113,2.2047 L21.9503,2.2047 L21.9503,3.2227 C22.5353,2.4447 23.2463,2.0547 24.0823,2.0547 C24.5113,2.0547 24.8963,2.1707 25.2393,2.4027 C25.5823,2.6357 25.8253,2.9387 25.9683,3.3137 C26.1113,3.6887 26.1823,4.2407 26.1823,4.9697 L26.1823,7.8937 L25.4533,7.8937 L25.4533,5.1827 C25.4533,4.5187 25.4233,4.0687 25.3623,3.8337 C25.3023,3.5977 25.2093,3.3977 25.0843,3.2337 C24.9593,3.0697 24.8003,2.9437 24.6073,2.8587 C24.4143,2.7727 24.1803,2.7297 23.9053,2.7297 C23.6303,2.7297 23.3613,2.7977 23.0963,2.9327 C22.8323,3.0697 22.6073,3.2587 22.4223,3.5007 C22.2363,3.7447 22.1113,3.9947 22.0473,4.2507 C21.9823,4.5087 21.9503,5.0267 21.9503,5.8047 L21.9503,7.8937 L21.2113,7.8937 L21.2113,2.2047 Z M15.5323,0.0087 L16.2713,0.0087 L16.2713,3.2227 C16.8573,2.4447 17.5683,2.0547 18.4033,2.0547 C18.8323,2.0547 19.2183,2.1707 19.5613,2.4027 C19.9033,2.6357 20.1463,2.9387 20.2893,3.3137 C20.4323,3.6887 20.5043,4.2407 20.5043,4.9697 L20.5043,7.8937 L19.7643,7.8937 L19.7643,5.1827 C19.7643,4.5977 19.7463,4.1947 19.7113,3.9727 C19.6753,3.7517 19.5963,3.5407 19.4753,3.3407 C19.3533,3.1407 19.1913,2.9887 18.9873,2.8857 C18.7843,2.7817 18.5373,2.7297 18.2483,2.7297 C17.9593,2.7297 17.6823,2.7977 17.4183,2.9327 C17.1533,3.0697 16.9283,3.2587 16.7433,3.5007 C16.5573,3.7447 16.4323,3.9947 16.3683,4.2507 C16.3033,4.5087 16.2713,5.0267 16.2713,5.8047 L16.2713,7.8937 L15.5323,7.8937 L15.5323,0.0087 Z M15.0183,3.3837 L14.4393,3.7477 C13.9393,3.0837 13.2543,2.7507 12.3823,2.7507 C11.6963,2.7507 11.1213,2.9707 10.6573,3.4107 C10.1933,3.8497 9.9613,4.3937 9.9613,5.0437 C9.9613,5.6947 10.1893,6.2517 10.6463,6.7157 C11.1033,7.1797 11.6823,7.4117 12.3823,7.4117 C13.2183,7.4117 13.9033,7.0797 14.4393,6.4157 L15.0183,6.8017 C14.7323,7.2157 14.3483,7.5337 13.8663,7.7547 C13.3843,7.9757 12.8643,8.0867 12.3073,8.0867 C11.4283,8.0867 10.6943,7.7977 10.1053,7.2197 C9.5163,6.6407 9.2213,5.9327 9.2213,5.0977 C9.2213,4.2617 9.5193,3.5457 10.1163,2.9497 C10.7123,2.3527 11.4783,2.0547 12.4143,2.0547 C12.9643,2.0547 13.4733,2.1727 13.9413,2.4087 C14.4093,2.6437 14.7683,2.9697 15.0183,3.3837 Z M8.1393,4.4977 C8.0393,3.9547 7.7893,3.5297 7.3893,3.2227 C6.9893,2.9157 6.5283,2.7617 6.0073,2.7617 C4.9363,2.7617 4.2363,3.3407 3.9073,4.4977 L8.1393,4.4977 Z M5.9753,7.4117 C6.9393,7.4117 7.6613,6.9587 8.1393,6.0517 L8.7603,6.3727 C8.1463,7.5157 7.2393,8.0867 6.0393,8.0867 C5.1823,8.0867 4.4753,7.7927 3.9183,7.2037 C3.3613,6.6137 3.0823,5.9047 3.0823,5.0767 C3.0823,4.2477 3.3623,3.5367 3.9233,2.9437 C4.4843,2.3507 5.1773,2.0547 6.0023,2.0547 C6.8273,2.0547 7.5203,2.3297 8.0803,2.8797 C8.6413,3.4297 8.9323,4.1797 8.9533,5.1297 L3.8323,5.1297 C3.8543,5.8157 4.0693,6.3677 4.4803,6.7857 C4.8913,7.2037 5.3893,7.4117 5.9753,7.4117 Z M1.9573,6.9947 C1.9573,7.1867 1.9823,7.3017 2.0323,7.3367 C2.0823,7.3727 2.2113,7.3907 2.4183,7.3907 L2.8573,7.3907 L2.8573,8.0117 C2.5573,8.0617 2.3213,8.0867 2.1503,8.0867 C1.8283,8.0867 1.5933,8.0087 1.4433,7.8507 C1.2933,7.6947 1.2183,7.4477 1.2183,7.1117 L1.2183,2.8267 L0.2113,2.8267 L0.2113,2.2047 L1.2183,2.2047 L1.2183,0.0087 L1.9573,0.0087 L1.9573,2.2047 L3.1143,2.2047 L3.1143,2.8267 L1.9573,2.8267 L1.9573,6.9947 Z" id="Fill-591" fill="#FEFEFE" mask="url(#mask-4)"></path>
                        </g>
                    </g>
                </g>
            </g>
        </g>
    </g>
</svg>